<svg id="Layer_1" data-name="Layer 1" xmlns="http://www.w3.org/2000/svg" viewBox="0 0 512.54 160.5"><defs><style>.cls-1{fill:#020202;}</style></defs><title>Origin Final LOGO</title><path class="cls-1" d="M195.54,249.66H153.88V89.16h41.66v4h-20.3q-5.25,0-7.26,1.36a5.76,5.76,0,0,0-2.49,3.85A82.14,82.14,0,0,0,165,110V228.74a89.41,89.41,0,0,0,.44,11.42,6,6,0,0,0,2.41,4q2,1.44,7.39,1.44h20.3Z" transform="translate(-153.88 -89.16)"/><path class="cls-1" d="M624.76,249.66v-4h20.3q5.25,0,7.26-1.4a5.92,5.92,0,0,0,2.49-3.89,82.14,82.14,0,0,0,.48-11.6V110a88.34,88.34,0,0,0-.44-11.33,6,6,0,0,0-2.41-4q-2-1.44-7.39-1.44h-20.3v-4h41.66v160.5Z" transform="translate(-153.88 -89.16)"/><path class="cls-1" d="M205.42,170.87a30.83,30.83,0,0,1,3.37-14.27,39.67,39.67,0,0,1,20.39-18.82,32,32,0,0,1,25.56,0,39.67,39.67,0,0,1,20.39,18.82,30.88,30.88,0,0,1,3.37,14.27,31.56,31.56,0,0,1-3.14,13.88,38.89,38.89,0,0,1-19.92,19.05,33.63,33.63,0,0,1-27,0,38.89,38.89,0,0,1-19.92-19.05A31.51,31.51,0,0,1,205.42,170.87Zm15.68,0q0,11.14,1.73,17.72a27.23,27.23,0,0,0,4.55,10.11,13.1,13.1,0,0,0,6.59,4.63,29.67,29.67,0,0,0,16,0,13.09,13.09,0,0,0,6.59-4.63,27.26,27.26,0,0,0,4.55-10.11q1.73-6.59,1.73-17.72a83.28,83.28,0,0,0-1.26-15.76,29.57,29.57,0,0,0-3.84-10.35,14.84,14.84,0,0,0-6.51-5.72,25.66,25.66,0,0,0-18.5,0,14.83,14.83,0,0,0-6.51,5.72,29.53,29.53,0,0,0-3.84,10.35A83,83,0,0,0,221.1,170.87Z" transform="translate(-153.88 -89.16)"/><path class="cls-1" d="M289.79,202.23h12.08V139.35H289.79v-2.2H315V153h.31a31.82,31.82,0,0,1,2-5.33,23.28,23.28,0,0,1,3.92-5.72,22.33,22.33,0,0,1,6-4.63,18,18,0,0,1,8.55-1.88,15.43,15.43,0,0,1,6.27,1.18,13.57,13.57,0,0,1,4.39,3,11,11,0,0,1,2.51,4.16,14.85,14.85,0,0,1,.78,4.7q0,5.17-2.35,6.9a9,9,0,0,1-5.49,1.72q-6.9,0-6.9-4.39a6.75,6.75,0,0,1,.31-2.27c.21-.57.44-1.15.71-1.73a14.51,14.51,0,0,0,.71-2,12.14,12.14,0,0,0,.31-3.14q0-5-5.49-5a9.71,9.71,0,0,0-5.33,1.88,19.65,19.65,0,0,0-5.25,5.49,34.37,34.37,0,0,0-4.08,8.7,38,38,0,0,0-1.65,11.68v35.91H329v2.2h-39.2Z" transform="translate(-153.88 -89.16)"/><path class="cls-1" d="M353.77,202.23h12.08V139.35H353.77v-2.2h25.56v65.08H391.4v2.2H353.77ZM364,100.62a8.3,8.3,0,1,1,2.43,5.88A8,8,0,0,1,364,100.62Z" transform="translate(-153.88 -89.16)"/><path class="cls-1" d="M402.7,194.24a15.8,15.8,0,0,1,1.57-7.29,21.08,21.08,0,0,1,3.84-5.33,21.42,21.42,0,0,1,4.86-3.68q2.59-1.41,4.63-2.35-9.1-6.27-9.1-16.94a18.64,18.64,0,0,1,2.67-9.88,26.23,26.23,0,0,1,6.74-7.45,30.06,30.06,0,0,1,9-4.63,31.35,31.35,0,0,1,9.49-1.57,24.73,24.73,0,0,1,12.15,2.82,34.46,34.46,0,0,1,7.45,5.18,18.5,18.5,0,0,1,5.1-5.49,13.68,13.68,0,0,1,8.39-2.51,12.82,12.82,0,0,1,5.8,1.33q2.66,1.33,2.67,5.72a5.06,5.06,0,0,1-1.8,4.24,6,6,0,0,1-3.69,1.41,3.67,3.67,0,0,1-3.14-1.25,17.42,17.42,0,0,1-1.65-2.67q-.71-1.41-1.49-2.67a2.6,2.6,0,0,0-2.35-1.26,5.17,5.17,0,0,0-3.21,1.33,16.15,16.15,0,0,0-2.9,3.06,34.77,34.77,0,0,1,3.61,5.33,18.44,18.44,0,0,1,2.19,9.41,16.45,16.45,0,0,1-2.35,8.62,25,25,0,0,1-6.19,6.9,29,29,0,0,1-8.94,4.63,33.72,33.72,0,0,1-10.43,1.65,27.79,27.79,0,0,1-9.57-1.49,62.91,62.91,0,0,1-6.27-2.59q-1.73.79-3.68,1.73a16.37,16.37,0,0,0-3.61,2.35,12.3,12.3,0,0,0-2.75,3.37,9,9,0,0,0-1.1,4.47,7.5,7.5,0,0,0,.94,3.92A6.16,6.16,0,0,0,412,195a11,11,0,0,0,3.37,1.1,23.6,23.6,0,0,0,3.92.31h24.78q11,0,17.49,5.25t6.51,16.54a26.47,26.47,0,0,1-3,12.54,32.53,32.53,0,0,1-7.92,9.8A36.3,36.3,0,0,1,445.82,247a39.28,39.28,0,0,1-13.17,2.27,41.9,41.9,0,0,1-11.21-1.41,32,32,0,0,1-8.86-3.84,18.58,18.58,0,0,1-5.88-5.88,14.4,14.4,0,0,1-2.12-7.69,16.73,16.73,0,0,1,1.65-7.45,22,22,0,0,1,4.23-6,27.76,27.76,0,0,1,5.88-4.47,46.79,46.79,0,0,1,6.59-3.14v-.31q-10.35,0-15.29-3.37T402.7,194.24Zm23.52,14.9q-2,1.25-4.16,2.59a15.24,15.24,0,0,0-3.77,3.37,16.85,16.85,0,0,0-2.67,4.78,23.24,23.24,0,0,0,.94,16.15,17.55,17.55,0,0,0,5,6,19,19,0,0,0,6.82,3.21,30.31,30.31,0,0,0,7.37.94,29.24,29.24,0,0,0,10.27-1.72,26.22,26.22,0,0,0,8-4.63,20.41,20.41,0,0,0,5.18-6.67,18,18,0,0,0,1.8-7.84q0-8.78-4.78-12.47t-13.1-3.68Zm25.4-51a57.52,57.52,0,0,0-.47-7.29,21.56,21.56,0,0,0-2-6.74,11.81,11.81,0,0,0-4.55-4.94,15.61,15.61,0,0,0-8.23-1.88q-8,0-12.08,4.86t-4.08,16a46.14,46.14,0,0,0,.71,8.47,16.86,16.86,0,0,0,2.59,6.51,11.84,11.84,0,0,0,5,4.16,19.57,19.57,0,0,0,8,1.41q8.15,0,11.6-5.1T451.62,158.17Z" transform="translate(-153.88 -89.16)"/><path class="cls-1" d="M481.57,202.23h12.08V139.35H481.57v-2.2h25.56v65.08h12.07v2.2H481.57Zm10.19-101.62a8.3,8.3,0,1,1,2.43,5.88A8,8,0,0,1,491.76,100.62Z" transform="translate(-153.88 -89.16)"/><path class="cls-1" d="M527.52,202.23h12.08V139.35H527.52v-2.2h25.25v16.78h.31q.94-2,2.74-5.18a27.28,27.28,0,0,1,4.94-6.12A26.85,26.85,0,0,1,580,135.43q10.35,0,16.86,5t6.51,16v45.79h12.07v2.2H577.85v-2.2h12.07V151.58a16.43,16.43,0,0,0-2.9-10q-2.9-3.92-9-3.92a21.75,21.75,0,0,0-9.57,2.2,25.16,25.16,0,0,0-8,6.12,29,29,0,0,0-5.41,9.25,33.33,33.33,0,0,0-2,11.6v35.44h12.08v2.2H527.52Z" transform="translate(-153.88 -89.16)"/></svg>