<svg id="Layer_1" data-name="Layer 1" xmlns="http://www.w3.org/2000/svg" viewBox="0 0 143.98 73.17"><defs><style>.cls-1{font-size:10px;font-family:Raleway-SemiBold, Raleway;font-weight:700;letter-spacing:0.25em;}.cls-1,.cls-11,.cls-7{fill:#231f20;}.cls-2{letter-spacing:0.26em;}.cls-3{letter-spacing:0.24em;}.cls-4{letter-spacing:0.23em;}.cls-5{letter-spacing:0.24em;}.cls-6{letter-spacing:0.26em;}.cls-7{font-size:7px;font-family:Raleway-Light, Raleway;letter-spacing:0.41em;}.cls-8{letter-spacing:0.4em;}.cls-9{letter-spacing:0.41em;}.cls-10{letter-spacing:0.39em;}</style></defs><title>SVelazquez-logo</title><text class="cls-1" transform="translate(0 59.86)">S<tspan class="cls-2" x="8.63" y="0">AMUE</tspan><tspan class="cls-3" x="48.19" y="0">L</tspan><tspan class="cls-4" x="56.4" y="0"> </tspan><tspan class="cls-2" x="61.17" y="0">VELA</tspan><tspan class="cls-5" x="97.13" y="0">Z</tspan><tspan class="cls-6" x="105.84" y="0">QUEZ</tspan></text><text class="cls-7" transform="translate(0 71.61)">G<tspan class="cls-8" x="7.89" y="0">R</tspan><tspan class="cls-9" x="15.23" y="0">APHIC/WEB D</tspan><tspan class="cls-10" x="94.56" y="0">E</tspan><tspan x="101.61" y="0">SIGNER</tspan></text><path class="cls-11" d="M61.24,25.4a5.08,5.08,0,0,0-1.61-1.79,9.68,9.68,0,0,0-2.55-1.24,31.39,31.39,0,0,0-3.37-.89c-1.12-.24-2.09-.48-2.91-.73a8.15,8.15,0,0,1-2-.85,3.4,3.4,0,0,1-1-1H45a4.12,4.12,0,0,0,.29.79,4.5,4.5,0,0,0,1.43,1.66,8.56,8.56,0,0,0,2.34,1.15c.92.31,2,.6,3.23.89s2.18.53,3.06.79a9.4,9.4,0,0,1,2.21.94,3.82,3.82,0,0,1,1.33,1.29,3.47,3.47,0,0,1,.44,1.83,3.37,3.37,0,0,1-1.56,3,8.06,8.06,0,0,1-4.37,1,12.75,12.75,0,0,1-2.57-.25,12.37,12.37,0,0,1-2.29-.69,11,11,0,0,1-1.94-1,9.28,9.28,0,0,1-1.5-1.25L44,31a13.94,13.94,0,0,0,9.39,3.39A14.15,14.15,0,0,0,56.76,34a7.76,7.76,0,0,0,2.67-1.17,5.59,5.59,0,0,0,1.75-2A5.9,5.9,0,0,0,61.8,28,5.54,5.54,0,0,0,61.24,25.4Zm-3.9-14.08a11.48,11.48,0,0,0-4.16-.71,11.89,11.89,0,0,0-3.36.45,8.15,8.15,0,0,0-2.63,1.28,5.69,5.69,0,0,0-1.73,2.11,6.3,6.3,0,0,0-.6,2.53h2.36a3.89,3.89,0,0,1,1.42-3.16,7,7,0,0,1,4.51-1.17,9.64,9.64,0,0,1,3.75.69,7.14,7.14,0,0,1,2.63,1.81l1.12-1.84A11.12,11.12,0,0,0,57.34,11.32Z" transform="translate(-0.7 -1.08)"/><path class="cls-11" d="M93.11,10.78,90.59,17h2.34l2.59-6.21ZM89.8,18.93l-5,12.36-5-12.36H77.41l6.35,15.23h2l6.35-15.23ZM76.42,10.78H74L76.6,17h2.35Z" transform="translate(-0.7 -1.08)"/><path class="cls-11" d="M67.28,18.93V41.59h1.94V18.93Zm0-13.54V17h1.94V5.39Z" transform="translate(-0.7 -1.08)"/><polygon class="cls-11" points="34.84 40.88 38.96 40.88 38.96 43.19 32.74 43.19 32.74 0.14 39.02 0.14 39.02 2.46 34.84 2.46 34.84 40.88"/><polygon class="cls-11" points="104.31 0 104.31 43.3 98.08 43.3 98.08 40.97 102.2 40.97 102.2 2.33 98.02 2.33 98.02 0 104.31 0"/></svg>