<?xml version="1.0" standalone="no"?>
<!DOCTYPE svg PUBLIC "-//W3C//DTD SVG 20010904//EN"
 "http://www.w3.org/TR/2001/REC-SVG-20010904/DTD/svg10.dtd">
<svg version="1.0" xmlns="http://www.w3.org/2000/svg"
 width="701.000000pt" height="943.000000pt" viewBox="0 0 701.000000 943.000000"
 preserveAspectRatio="xMidYMid meet">
<metadata>
Created by potrace 1.15, written by Peter Selinger 2001-2017
</metadata>
<g transform="translate(0.000000,943.000000) scale(0.100000,-0.100000)"
fill="#000000" stroke="none">
<path d="M8 9368 c-1 -35 -4 -1413 -4 -3063 l-2 -3000 13 2575 c17 3307 17
3550 6 3550 -5 0 -11 -28 -13 -62z"/>
<path d="M3371 9426 c11 -9 3639 -16 3639 -6 0 7 -595 10 -1822 10 -1002 0
-1819 -2 -1817 -4z"/>
<path d="M6992 5325 c-7 -1743 -14 -3656 -17 -4250 -2 -594 -1 -1060 4 -1037
4 24 14 48 22 53 11 7 11 11 1 17 -10 7 -11 472 -2 2458 6 1347 10 3232 8
4189 l-3 1740 -13 -3170z"/>
<path d="M530 6200 l0 -2260 205 0 205 0 0 60 0 60 -145 0 -145 0 0 2140 0
2140 53 1 c28 0 94 0 145 -1 l92 -1 0 60 0 61 -205 0 -205 0 0 -2260z"/>
<path d="M6190 8405 c0 -37 4 -55 13 -56 23 -3 122 -7 200 -8 l77 -1 0 -2140
0 -2140 -145 0 -145 0 0 -60 0 -60 200 0 200 0 0 2260 0 2260 -200 0 -200 0 0
-55z"/>
<path d="M1307 7582 l-188 -188 3 -47 3 -47 235 235 235 235 -50 0 -50 0 -188
-188z"/>
<path d="M1492 7397 l-373 -373 3 -47 3 -47 420 420 420 420 -50 0 -50 0 -373
-373z"/>
<path d="M1682 7207 l-562 -562 0 -50 0 -50 295 295 c212 212 295 301 295 317
0 17 6 23 23 23 16 0 105 83 317 295 l295 295 -50 0 -50 0 -563 -563z"/>
<path d="M2310 7465 l-285 -285 50 0 50 0 275 275 c177 177 269 276 259 279
-63 20 -49 31 -349 -269z"/>
<path d="M2641 7426 c-219 -219 -241 -244 -219 -249 53 -15 63 -7 298 228 129
129 232 236 230 238 -5 3 -60 27 -63 27 -1 0 -112 -110 -246 -244z"/>
<path d="M4820 7583 c-477 -75 -751 -301 -815 -671 -58 -329 47 -570 310 -717
123 -69 329 -135 700 -225 276 -66 360 -92 480 -149 128 -61 220 -142 267
-239 29 -59 33 -77 36 -169 5 -117 -6 -169 -51 -256 -61 -117 -203 -207 -394
-249 -80 -18 -131 -22 -278 -22 -182 -1 -257 8 -410 46 -222 54 -432 162 -576
296 -34 31 -64 51 -68 46 -5 -5 -38 -57 -74 -116 l-66 -107 62 -49 c313 -249
683 -373 1112 -373 249 0 419 30 601 104 125 50 271 171 344 281 128 198 146
525 39 727 -111 209 -325 339 -724 443 -55 14 -190 46 -300 72 -441 102 -603
181 -685 335 -30 57 -34 73 -38 166 -8 181 32 298 137 403 121 121 315 180
591 180 318 -1 576 -93 771 -277 l36 -34 66 109 c37 60 67 113 67 118 -1 13
-125 105 -206 152 -152 88 -322 147 -498 171 -72 10 -380 13 -436 4z"/>
<path d="M2920 7325 c-118 -118 -212 -216 -210 -218 3 -1 18 -9 34 -16 l30
-12 213 213 213 213 -22 17 c-13 10 -28 18 -33 18 -6 0 -107 -97 -225 -215z"/>
<path d="M3146 7181 l-210 -210 25 -20 c13 -11 26 -20 29 -21 3 0 97 92 210
205 l205 205 -25 25 -25 25 -209 -209z"/>
<path d="M3326 6991 l-209 -209 19 -31 20 -30 212 212 212 212 -23 28 -22 28
-209 -210z"/>
<path d="M3457 6752 l-217 -218 12 -37 13 -37 229 229 229 229 -17 26 c-9 14
-20 26 -24 26 -4 0 -105 -98 -225 -218z"/>
<path d="M1412 6567 l-293 -293 3 -47 3 -47 293 293 293 293 -3 47 -3 47 -293
-293z"/>
<path d="M3543 6457 l-252 -252 -7 -55 -6 -55 271 270 c256 254 272 272 266
300 -3 16 -9 33 -13 37 -4 4 -121 -106 -259 -245z"/>
<path d="M1412 6197 l-293 -293 3 -47 3 -47 293 293 293 293 -3 47 -3 47 -293
-293z"/>
<path d="M3010 5555 l-855 -855 50 0 50 0 812 813 813 812 -8 43 -7 42 -855
-855z"/>
<path d="M1412 5817 l-293 -293 3 -47 3 -47 293 293 293 293 -3 47 -3 47 -293
-293z"/>
<path d="M3200 5374 l-655 -656 55 6 55 7 597 596 597 597 6 48 c4 27 5 51 3
53 -2 2 -298 -291 -658 -651z"/>
<path d="M1412 5447 l-293 -293 3 -47 3 -47 293 293 293 293 -3 47 -3 47 -293
-293z"/>
<path d="M3390 5183 c-146 -146 -251 -258 -235 -248 173 104 370 300 490 488
9 15 16 27 14 27 -2 0 -123 -120 -269 -267z"/>
<path d="M1413 5078 c-292 -292 -293 -293 -293 -336 0 -23 3 -42 8 -42 4 0
138 132 298 293 l290 292 -6 43 -5 42 -292 -292z"/>
<path d="M2409 5293 c-31 -4 -69 -38 -329 -298 l-295 -295 50 0 50 0 300 300
c189 189 292 299 280 298 -11 -1 -36 -3 -56 -5z"/>
<path d="M1710 4995 l-295 -295 45 0 45 0 295 295 295 295 -45 0 -45 0 -295
-295z"/>
<path d="M4123 2909 c-102 -17 -187 -76 -214 -148 -15 -39 -12 -136 5 -170 31
-59 105 -96 256 -126 190 -37 280 -82 310 -155 20 -49 8 -132 -25 -175 -48
-64 -99 -80 -250 -80 -120 0 -135 2 -186 26 -31 15 -75 43 -97 63 -28 26 -43
33 -48 25 -10 -17 46 -63 126 -102 60 -29 75 -32 185 -35 102 -3 129 -1 179
17 103 36 150 97 149 197 -1 134 -64 180 -332 241 -207 46 -261 86 -261 191 0
64 18 108 60 145 49 45 121 67 219 67 96 0 144 -13 204 -57 53 -37 74 -37 38
1 -57 60 -205 95 -318 75z"/>
<path d="M130 2470 l0 -440 165 0 c183 0 244 9 326 50 144 73 226 259 201 454
-14 107 -44 182 -98 244 -93 107 -174 132 -421 132 l-173 0 0 -440z m462 377
c72 -36 149 -119 180 -195 20 -49 23 -74 22 -182 0 -106 -3 -134 -23 -182 -29
-76 -103 -156 -178 -193 -57 -30 -61 -30 -245 -33 l-188 -4 0 412 0 412 188
-4 c181 -3 189 -4 244 -31z"/>
<path d="M1010 2470 c0 -384 2 -440 15 -440 13 0 15 56 15 440 0 384 -2 440
-15 440 -13 0 -15 -56 -15 -440z"/>
<path d="M1194 2894 c3 -11 88 -208 189 -439 109 -250 189 -421 198 -423 10
-2 69 121 205 435 105 241 186 440 181 442 -5 2 -13 -3 -18 -10 -4 -8 -88
-197 -185 -422 -98 -224 -181 -404 -185 -400 -5 5 -88 192 -187 417 -98 225
-184 412 -191 414 -9 3 -11 -2 -7 -14z"/>
<path d="M2210 2640 l180 -271 0 -169 c0 -107 4 -170 10 -170 6 0 10 63 10
170 l0 170 180 270 c112 168 174 270 165 270 -8 0 -87 -108 -182 -250 -91
-137 -169 -250 -173 -250 -4 0 -82 113 -173 250 -94 140 -174 250 -182 250 -9
0 55 -105 165 -270z"/>
<path d="M2915 2483 c-103 -236 -189 -434 -192 -440 -3 -7 1 -13 9 -13 8 0 40
62 80 153 l66 152 234 3 233 2 67 -152 c37 -87 73 -154 81 -156 10 -2 -53 153
-177 437 -105 243 -196 441 -202 441 -6 0 -96 -192 -199 -427z m305 147 c56
-129 104 -241 107 -247 4 -10 -43 -13 -215 -13 l-220 0 100 228 c55 125 104
238 109 251 5 13 11 22 13 20 2 -2 50 -110 106 -239z"/>
<path d="M4786 2523 c-94 -214 -180 -412 -193 -440 -17 -40 -19 -53 -9 -53 8
0 42 64 81 155 l68 155 232 0 232 0 68 -155 c42 -95 73 -155 82 -155 8 0 12 3
10 8 -2 4 -89 202 -192 440 -103 237 -193 432 -199 432 -6 0 -87 -174 -180
-387z m298 79 c53 -123 96 -225 96 -227 0 -3 -97 -5 -216 -5 -202 0 -216 1
-210 18 4 9 52 122 108 250 93 212 103 231 114 210 7 -13 55 -123 108 -246z"/>
<path d="M5510 2470 c0 -287 3 -440 10 -440 7 0 10 153 10 440 0 287 -3 440
-10 440 -7 0 -10 -153 -10 -440z"/>
<path d="M5780 2470 c0 -283 4 -440 10 -440 6 0 11 150 12 414 l3 415 330
-415 c182 -227 336 -414 343 -414 9 0 12 95 12 440 0 283 -4 440 -10 440 -6 0
-11 -152 -12 -420 l-3 -420 -335 420 c-184 231 -338 420 -342 420 -4 0 -8
-198 -8 -440z"/>
<path d="M6740 2470 c0 -287 3 -440 10 -440 7 0 10 153 10 440 0 287 -3 440
-10 440 -7 0 -10 -153 -10 -440z"/>
<path d="M360 1589 c-83 -33 -143 -128 -143 -226 0 -73 43 -156 101 -198 39
-27 52 -30 117 -30 67 0 78 3 119 32 l46 33 0 -35 c0 -19 5 -35 10 -35 6 0 10
43 10 110 l0 110 -67 -2 -68 -2 58 -3 57 -4 0 -58 c0 -54 -3 -61 -34 -89 -171
-150 -412 60 -312 273 13 28 37 63 55 78 74 62 187 57 255 -10 20 -20 36 -32
36 -26 0 18 -49 64 -85 79 -39 16 -118 18 -155 3z"/>
<path d="M720 1365 c0 -150 4 -235 10 -235 6 0 10 37 10 90 l0 90 88 0 87 0
58 -91 c32 -51 60 -89 63 -86 3 2 -20 44 -51 92 -31 48 -55 88 -53 89 2 1 16
6 33 12 34 11 72 62 81 110 5 25 0 46 -17 81 -35 69 -69 83 -201 83 l-108 0 0
-235z m258 199 c49 -34 67 -116 37 -174 -27 -52 -49 -60 -167 -60 l-108 0 0
125 0 125 108 0 c81 0 113 -4 130 -16z"/>
<path d="M1281 1579 c-5 -13 -50 -118 -100 -233 -50 -115 -89 -211 -87 -214 3
-3 19 26 36 64 16 38 34 76 39 84 6 12 34 16 128 18 l120 3 38 -86 c20 -47 41
-85 45 -85 9 0 -185 449 -200 464 -6 6 -13 0 -19 -15z m78 -143 c28 -65 50
-121 48 -123 -3 -2 -54 -2 -115 -1 l-110 3 55 128 c31 70 59 124 63 120 4 -4
31 -62 59 -127z"/>
<path d="M1587 1593 c-11 -11 -8 -463 3 -463 6 0 10 37 10 90 l0 90 95 0 c59
0 108 5 129 14 108 45 108 217 0 262 -34 14 -224 20 -237 7z m251 -29 c49 -34
67 -116 37 -174 -27 -52 -49 -60 -167 -60 l-108 0 0 125 0 125 108 0 c81 0
113 -4 130 -16z"/>
<path d="M1990 1365 c0 -150 4 -235 10 -235 6 0 10 45 10 115 l0 115 160 0
160 0 0 -115 c0 -70 4 -115 10 -115 6 0 10 83 10 229 0 143 -4 232 -10 236 -6
4 -10 -35 -10 -109 l0 -116 -160 0 -160 0 0 115 c0 70 -4 115 -10 115 -6 0
-10 -85 -10 -235z"/>
<path d="M3650 1366 l0 -236 93 0 c108 0 155 11 197 47 87 73 105 233 37 334
-40 60 -95 82 -219 87 l-108 5 0 -237z m248 195 c71 -36 103 -97 103 -196 0
-155 -81 -225 -263 -225 l-78 0 0 220 0 220 100 0 c79 0 109 -4 138 -19z"/>
<path d="M4120 1365 l0 -235 158 2 157 2 -152 3 -153 4 0 109 0 110 128 2 127
2 -125 6 -125 5 -3 103 -3 102 146 0 c90 0 145 4 145 10 0 6 -57 10 -150 10
l-150 0 0 -235z"/>
<path d="M5150 1578 c-88 -45 -143 -161 -122 -256 14 -62 58 -129 104 -160 36
-23 52 -27 114 -27 65 0 77 3 118 32 l46 33 0 -35 c0 -19 5 -35 10 -35 6 0 10
43 10 110 l0 110 -67 -2 -68 -2 58 -3 57 -4 0 -59 c0 -53 -3 -60 -32 -86 -108
-91 -246 -62 -310 65 -48 94 -35 193 35 265 77 80 192 84 270 9 20 -21 37 -33
37 -27 0 6 -15 25 -33 42 -58 56 -151 68 -227 30z"/>
<path d="M5530 1366 c0 -147 4 -236 10 -236 6 0 11 83 12 216 l3 217 170 -216
c94 -119 176 -216 183 -217 15 0 18 455 2 465 -6 4 -11 -74 -12 -217 l-3 -223
-167 211 c-92 116 -174 217 -183 224 -13 11 -15 -13 -15 -224z"/>
<path d="M6047 1593 c-4 -3 -7 -109 -7 -235 l0 -228 158 2 157 2 -147 3 -148
4 0 109 0 109 128 4 127 3 -127 2 -128 2 0 105 0 105 140 0 c87 0 140 4 140
10 0 11 -282 14 -293 3z"/>
<path d="M6450 1365 c0 -150 4 -235 10 -235 6 0 10 37 10 90 l0 90 85 0 85 0
57 -87 c67 -104 62 -98 68 -91 3 3 -18 40 -46 83 -62 95 -66 105 -45 105 26 0
66 30 82 63 22 42 20 110 -5 151 -33 53 -72 66 -195 66 l-106 0 0 -235z m269
185 c53 -54 53 -136 -1 -190 -29 -30 -31 -30 -139 -30 l-109 0 0 125 0 125
109 0 c109 0 110 0 140 -30z"/>
</g>
</svg>
